STARTFONT 2.1
FONT -FontForge-NewYork_26-Regular-R-Normal--17-170-72-72-P-219-MacRoman-0
SIZE 17 72 72
FONTBOUNDINGBOX 15 17 0 -3
COMMENT "Generated by fontforge, http://fontforge.sourceforge.net"
STARTPROPERTIES 31
FOUNDRY "FontForge"
FAMILY_NAME "NewYork_26"
WEIGHT_NAME "Regular"
SLANT "R"
SETWIDTH_NAME "Normal"
ADD_STYLE_NAME ""
PIXEL_SIZE 17
POINT_SIZE 170
RESOLUTION_X 72
RESOLUTION_Y 72
SPACING "P"
AVERAGE_WIDTH 219
CHARSET_REGISTRY "MacRoman"
CHARSET_ENCODING "0"
FONTNAME_REGISTRY ""
CHARSET_COLLECTIONS "MacRoman"
FONT_NAME "NewYork_26"
FACE_NAME "NewYork_26"
COPYRIGHT ""
FONT_VERSION "001.000"
FONT_ASCENT 14
FONT_DESCENT 3
UNDERLINE_POSITION -2
UNDERLINE_THICKNESS 1
X_HEIGHT 7
CAP_HEIGHT 10
RAW_ASCENT 800
RAW_DESCENT 200
NORM_SPACE 4
AVG_LOWERCASE_WIDTH 204
AVG_UPPERCASE_WIDTH 161
ENDPROPERTIES
CHARS 179
STARTCHAR uni0000
ENCODING 0
SWIDTH 0 0
DWIDTH 0 0
BBX 1 1 0 0
BITMAP
00
ENDCHAR
STARTCHAR uni0002
ENCODING 2
SWIDTH 0 0
DWIDTH 255 0
BBX 1 1 0 0
BITMAP
00
ENDCHAR
STARTCHAR uni0003
ENCODING 3
SWIDTH 0 0
DWIDTH 255 0
BBX 1 1 0 0
BITMAP
00
ENDCHAR
STARTCHAR uni0004
ENCODING 4
SWIDTH 0 0
DWIDTH 255 0
BBX 1 1 0 0
BITMAP
00
ENDCHAR
STARTCHAR uni0005
ENCODING 5
SWIDTH 0 0
DWIDTH 255 0
BBX 1 1 0 0
BITMAP
00
ENDCHAR
STARTCHAR uni0006
ENCODING 6
SWIDTH 0 0
DWIDTH 255 0
BBX 1 1 0 0
BITMAP
00
ENDCHAR
STARTCHAR uni0008
ENCODING 8
SWIDTH 0 0
DWIDTH 255 0
BBX 1 1 0 0
BITMAP
00
ENDCHAR
STARTCHAR uni000A
ENCODING 10
SWIDTH 0 0
DWIDTH 255 0
BBX 1 1 0 0
BITMAP
00
ENDCHAR
STARTCHAR uni000B
ENCODING 11
SWIDTH 0 0
DWIDTH 255 0
BBX 1 1 0 0
BITMAP
00
ENDCHAR
STARTCHAR uni000C
ENCODING 12
SWIDTH 0 0
DWIDTH 255 0
BBX 1 1 0 0
BITMAP
00
ENDCHAR
STARTCHAR uni000D
ENCODING 13
SWIDTH 0 0
DWIDTH 0 0
BBX 1 1 0 0
BITMAP
00
ENDCHAR
STARTCHAR uni000E
ENCODING 14
SWIDTH 0 0
DWIDTH 255 0
BBX 1 1 0 0
BITMAP
00
ENDCHAR
STARTCHAR space
ENCODING 32
SWIDTH 250 0
DWIDTH 4 0
BBX 1 1 4 -3
BITMAP
00
ENDCHAR
STARTCHAR exclam
ENCODING 33
SWIDTH 250 0
DWIDTH 5 0
BBX 1 11 2 0
BITMAP
80
80
80
80
80
80
80
80
80
00
80
ENDCHAR
STARTCHAR quotedbl
ENCODING 34
SWIDTH 416 0
DWIDTH 5 0
BBX 3 3 1 8
BITMAP
A0
A0
A0
ENDCHAR
STARTCHAR numbersign
ENCODING 35
SWIDTH 500 0
DWIDTH 9 0
BBX 7 5 1 6
BITMAP
14
7E
28
FC
50
ENDCHAR
STARTCHAR dollar
ENCODING 36
SWIDTH 500 0
DWIDTH 7 0
BBX 5 12 1 -1
BITMAP
20
70
A8
A0
60
30
28
28
28
A8
70
20
ENDCHAR
STARTCHAR percent
ENCODING 37
SWIDTH 666 0
DWIDTH 11 0
BBX 9 11 1 0
BITMAP
7F80
9080
9100
9200
6400
0800
1300
2480
4480
4480
4300
ENDCHAR
STARTCHAR ampersand
ENCODING 38
SWIDTH 666 0
DWIDTH 11 0
BBX 9 11 1 0
BITMAP
3000
4800
4800
5000
2000
5000
8980
8500
8200
4500
3980
ENDCHAR
STARTCHAR quotesingle
ENCODING 39
SWIDTH 250 0
DWIDTH 4 0
BBX 1 3 1 8
BITMAP
80
80
80
ENDCHAR
STARTCHAR parenleft
ENCODING 40
SWIDTH 333 0
DWIDTH 6 0
BBX 3 13 1 -1
BITMAP
20
40
40
80
80
80
80
80
80
80
40
40
20
ENDCHAR
STARTCHAR parenright
ENCODING 41
SWIDTH 333 0
DWIDTH 6 0
BBX 3 13 2 -1
BITMAP
80
40
40
20
20
20
20
20
20
20
40
40
80
ENDCHAR
STARTCHAR asterisk
ENCODING 42
SWIDTH 333 0
DWIDTH 7 0
BBX 5 5 1 6
BITMAP
20
A8
70
A8
20
ENDCHAR
STARTCHAR plus
ENCODING 43
SWIDTH 500 0
DWIDTH 8 0
BBX 7 7 0 2
BITMAP
10
10
10
FE
10
10
10
ENDCHAR
STARTCHAR comma
ENCODING 44
SWIDTH 250 0
DWIDTH 4 0
BBX 2 3 1 -2
BITMAP
40
40
80
ENDCHAR
STARTCHAR hyphen
ENCODING 45
SWIDTH 416 0
DWIDTH 8 0
BBX 6 1 1 5
BITMAP
FC
ENDCHAR
STARTCHAR period
ENCODING 46
SWIDTH 250 0
DWIDTH 3 0
BBX 1 1 1 0
BITMAP
80
ENDCHAR
STARTCHAR slash
ENCODING 47
SWIDTH 416 0
DWIDTH 8 0
BBX 5 10 2 0
BITMAP
08
08
10
10
20
20
40
40
80
80
ENDCHAR
STARTCHAR zero
ENCODING 48
SWIDTH 500 0
DWIDTH 10 0
BBX 8 11 1 0
BITMAP
3C
42
81
81
81
81
81
81
81
42
3C
ENDCHAR
STARTCHAR one
ENCODING 49
SWIDTH 500 0
DWIDTH 10 0
BBX 3 11 3 0
BITMAP
40
C0
40
40
40
40
40
40
40
40
E0
ENDCHAR
STARTCHAR two
ENCODING 50
SWIDTH 500 0
DWIDTH 10 0
BBX 8 11 1 0
BITMAP
3C
42
81
01
02
04
08
10
20
41
FF
ENDCHAR
STARTCHAR three
ENCODING 51
SWIDTH 500 0
DWIDTH 10 0
BBX 8 12 1 -1
BITMAP
3C
42
02
02
04
0C
02
01
01
81
42
3C
ENDCHAR
STARTCHAR four
ENCODING 52
SWIDTH 500 0
DWIDTH 10 0
BBX 8 11 1 0
BITMAP
04
08
10
24
44
84
FF
04
04
04
0E
ENDCHAR
STARTCHAR five
ENCODING 53
SWIDTH 500 0
DWIDTH 10 0
BBX 7 13 2 -2
BITMAP
FC
80
80
80
F8
04
02
02
02
02
04
18
E0
ENDCHAR
STARTCHAR six
ENCODING 54
SWIDTH 500 0
DWIDTH 10 0
BBX 8 12 1 0
BITMAP
18
20
40
80
BC
C2
81
81
81
81
42
3C
ENDCHAR
STARTCHAR seven
ENCODING 55
SWIDTH 500 0
DWIDTH 10 0
BBX 8 11 1 0
BITMAP
FF
81
02
02
04
04
08
08
10
10
10
ENDCHAR
STARTCHAR eight
ENCODING 56
SWIDTH 500 0
DWIDTH 10 0
BBX 8 12 1 -1
BITMAP
3C
42
42
42
3C
42
81
81
81
81
42
3C
ENDCHAR
STARTCHAR nine
ENCODING 57
SWIDTH 500 0
DWIDTH 10 0
BBX 8 12 1 -1
BITMAP
3C
42
81
81
81
81
43
3D
01
02
04
38
ENDCHAR
STARTCHAR colon
ENCODING 58
SWIDTH 250 0
DWIDTH 4 0
BBX 1 7 2 0
BITMAP
80
00
00
00
00
00
80
ENDCHAR
STARTCHAR semicolon
ENCODING 59
SWIDTH 250 0
DWIDTH 4 0
BBX 2 9 1 -2
BITMAP
40
00
00
00
00
00
40
40
80
ENDCHAR
STARTCHAR less
ENCODING 60
SWIDTH 333 0
DWIDTH 6 0
BBX 4 7 1 1
BITMAP
10
20
40
80
40
20
10
ENDCHAR
STARTCHAR equal
ENCODING 61
SWIDTH 416 0
DWIDTH 8 0
BBX 6 4 1 3
BITMAP
FC
00
00
FC
ENDCHAR
STARTCHAR greater
ENCODING 62
SWIDTH 333 0
DWIDTH 6 0
BBX 4 7 1 1
BITMAP
80
40
20
10
20
40
80
ENDCHAR
STARTCHAR question
ENCODING 63
SWIDTH 416 0
DWIDTH 9 0
BBX 7 11 1 0
BITMAP
38
44
82
82
04
08
10
10
10
00
10
ENDCHAR
STARTCHAR at
ENCODING 64
SWIDTH 666 0
DWIDTH 11 0
BBX 9 8 1 0
BITMAP
3E00
4100
9C80
A480
A480
9B00
4000
3C00
ENDCHAR
STARTCHAR A
ENCODING 65
SWIDTH 666 0
DWIDTH 12 0
BBX 11 11 0 0
BITMAP
0400
0400
0A00
0A00
1100
1100
2080
3F80
4040
4040
E0E0
ENDCHAR
STARTCHAR B
ENCODING 66
SWIDTH 500 0
DWIDTH 10 0
BBX 9 11 0 0
BITMAP
FC00
4200
4100
4100
7E00
4100
4080
4080
4080
4100
FE00
ENDCHAR
STARTCHAR C
ENCODING 67
SWIDTH 500 0
DWIDTH 9 0
BBX 8 11 0 0
BITMAP
3E
43
81
80
80
80
80
80
81
42
3C
ENDCHAR
STARTCHAR D
ENCODING 68
SWIDTH 583 0
DWIDTH 9 0
BBX 8 11 0 0
BITMAP
FC
42
41
41
41
41
41
41
41
42
FC
ENDCHAR
STARTCHAR E
ENCODING 69
SWIDTH 500 0
DWIDTH 8 0
BBX 7 11 0 0
BITMAP
FE
42
40
40
48
78
48
40
40
42
FE
ENDCHAR
STARTCHAR F
ENCODING 70
SWIDTH 500 0
DWIDTH 8 0
BBX 7 11 0 0
BITMAP
FE
42
42
40
48
78
48
40
40
40
E0
ENDCHAR
STARTCHAR G
ENCODING 71
SWIDTH 500 0
DWIDTH 10 0
BBX 9 11 0 0
BITMAP
3E00
4300
8100
8000
8000
8380
8100
8100
8100
4200
3C00
ENDCHAR
STARTCHAR H
ENCODING 72
SWIDTH 583 0
DWIDTH 10 0
BBX 9 11 0 0
BITMAP
E380
4100
4100
4100
4100
7F00
4100
4100
4100
4100
E380
ENDCHAR
STARTCHAR I
ENCODING 73
SWIDTH 333 0
DWIDTH 6 0
BBX 3 11 1 0
BITMAP
E0
40
40
40
40
40
40
40
40
40
E0
ENDCHAR
STARTCHAR J
ENCODING 74
SWIDTH 416 0
DWIDTH 5 0
BBX 4 14 0 -3
BITMAP
70
20
20
20
20
20
20
20
20
20
20
20
20
C0
ENDCHAR
STARTCHAR K
ENCODING 75
SWIDTH 583 0
DWIDTH 10 0
BBX 9 11 0 0
BITMAP
E780
4200
4400
4800
5000
6000
5000
4800
4400
4200
E780
ENDCHAR
STARTCHAR L
ENCODING 76
SWIDTH 500 0
DWIDTH 8 0
BBX 7 11 0 0
BITMAP
E0
40
40
40
40
40
40
40
40
42
FE
ENDCHAR
STARTCHAR M
ENCODING 77
SWIDTH 666 0
DWIDTH 12 0
BBX 11 11 0 0
BITMAP
C060
4040
60C0
60C0
5140
5140
4A40
4A40
4440
4440
E0E0
ENDCHAR
STARTCHAR N
ENCODING 78
SWIDTH 583 0
DWIDTH 10 0
BBX 9 11 0 0
BITMAP
E380
6100
5100
5100
4900
4900
4500
4500
4300
4300
E100
ENDCHAR
STARTCHAR O
ENCODING 79
SWIDTH 583 0
DWIDTH 9 0
BBX 8 11 0 0
BITMAP
3C
42
81
81
81
81
81
81
81
42
3C
ENDCHAR
STARTCHAR P
ENCODING 80
SWIDTH 500 0
DWIDTH 9 0
BBX 8 11 0 0
BITMAP
FC
42
41
41
41
42
7C
40
40
40
E0
ENDCHAR
STARTCHAR Q
ENCODING 81
SWIDTH 583 0
DWIDTH 9 0
BBX 8 13 0 -2
BITMAP
3C
42
81
81
81
81
81
81
81
42
3C
08
06
ENDCHAR
STARTCHAR R
ENCODING 82
SWIDTH 500 0
DWIDTH 10 0
BBX 9 11 0 0
BITMAP
FC00
4200
4100
4100
4100
4200
7C00
4400
4200
4100
E380
ENDCHAR
STARTCHAR S
ENCODING 83
SWIDTH 416 0
DWIDTH 9 0
BBX 8 11 0 0
BITMAP
3D
43
81
80
60
18
06
81
81
C2
BC
ENDCHAR
STARTCHAR T
ENCODING 84
SWIDTH 500 0
DWIDTH 8 0
BBX 7 11 0 0
BITMAP
FE
92
10
10
10
10
10
10
10
10
38
ENDCHAR
STARTCHAR U
ENCODING 85
SWIDTH 583 0
DWIDTH 11 0
BBX 10 11 0 0
BITMAP
E1C0
4080
4080
4080
4080
4080
4080
4080
4080
2100
1E00
ENDCHAR
STARTCHAR V
ENCODING 86
SWIDTH 583 0
DWIDTH 12 0
BBX 11 11 0 0
BITMAP
E0E0
4040
4040
2080
2080
1100
1100
0A00
0A00
0400
0400
ENDCHAR
STARTCHAR W
ENCODING 87
SWIDTH 750 0
DWIDTH 14 0
BBX 13 11 0 0
BITMAP
EE38
4410
4410
2220
2220
1540
1540
1540
0880
0880
0880
ENDCHAR
STARTCHAR X
ENCODING 88
SWIDTH 500 0
DWIDTH 10 0
BBX 9 11 0 0
BITMAP
E380
4100
2200
2200
1400
0800
1400
2200
2200
4100
E380
ENDCHAR
STARTCHAR Y
ENCODING 89
SWIDTH 500 0
DWIDTH 10 0
BBX 9 11 0 0
BITMAP
E380
4100
2200
2200
1400
1400
0800
0800
0800
0800
1C00
ENDCHAR
STARTCHAR Z
ENCODING 90
SWIDTH 416 0
DWIDTH 8 0
BBX 7 11 0 0
BITMAP
FE
82
04
08
08
10
20
20
40
82
FE
ENDCHAR
STARTCHAR bracketleft
ENCODING 91
SWIDTH 250 0
DWIDTH 4 0
BBX 2 13 1 -1
BITMAP
C0
80
80
80
80
80
80
80
80
80
80
80
C0
ENDCHAR
STARTCHAR backslash
ENCODING 92
SWIDTH 416 0
DWIDTH 7 0
BBX 5 10 1 0
BITMAP
80
80
40
40
20
20
10
10
08
08
ENDCHAR
STARTCHAR bracketright
ENCODING 93
SWIDTH 250 0
DWIDTH 4 0
BBX 2 13 1 -1
BITMAP
C0
40
40
40
40
40
40
40
40
40
40
40
C0
ENDCHAR
STARTCHAR asciicircum
ENCODING 94
SWIDTH 333 0
DWIDTH 7 0
BBX 5 3 1 7
BITMAP
20
50
88
ENDCHAR
STARTCHAR underscore
ENCODING 95
SWIDTH 500 0
DWIDTH 7 0
BBX 7 1 0 0
BITMAP
FE
ENDCHAR
STARTCHAR grave
ENCODING 96
SWIDTH 250 0
DWIDTH 5 0
BBX 3 3 1 6
BITMAP
80
40
20
ENDCHAR
STARTCHAR a
ENCODING 97
SWIDTH 416 0
DWIDTH 8 0
BBX 7 8 0 0
BITMAP
38
44
8C
34
44
84
8C
72
ENDCHAR
STARTCHAR b
ENCODING 98
SWIDTH 500 0
DWIDTH 9 0
BBX 8 11 0 0
BITMAP
40
C0
40
5C
62
41
41
41
41
62
5C
ENDCHAR
STARTCHAR c
ENCODING 99
SWIDTH 416 0
DWIDTH 7 0
BBX 6 8 0 0
BITMAP
38
44
80
80
80
80
44
38
ENDCHAR
STARTCHAR d
ENCODING 100
SWIDTH 500 0
DWIDTH 9 0
BBX 8 11 0 0
BITMAP
06
02
02
3A
46
82
82
82
82
47
3A
ENDCHAR
STARTCHAR e
ENCODING 101
SWIDTH 416 0
DWIDTH 8 0
BBX 7 8 0 0
BITMAP
38
44
82
FE
80
82
44
38
ENDCHAR
STARTCHAR f
ENCODING 102
SWIDTH 333 0
DWIDTH 5 0
BBX 4 11 0 0
BITMAP
30
40
40
E0
40
40
40
40
40
40
E0
ENDCHAR
STARTCHAR g
ENCODING 103
SWIDTH 416 0
DWIDTH 8 0
BBX 7 12 0 -3
BITMAP
02
3A
44
82
82
44
78
80
7C
82
82
7C
ENDCHAR
STARTCHAR h
ENCODING 104
SWIDTH 500 0
DWIDTH 10 0
BBX 9 11 0 0
BITMAP
4000
C000
4000
5C00
6200
4100
4100
4100
4100
4100
E380
ENDCHAR
STARTCHAR i
ENCODING 105
SWIDTH 333 0
DWIDTH 4 0
BBX 3 10 0 0
BITMAP
40
00
40
C0
40
40
40
40
40
E0
ENDCHAR
STARTCHAR j
ENCODING 106
SWIDTH 250 0
DWIDTH 5 0
BBX 3 13 0 -3
BITMAP
20
00
20
60
20
20
20
20
20
20
20
40
80
ENDCHAR
STARTCHAR k
ENCODING 107
SWIDTH 500 0
DWIDTH 8 0
BBX 7 11 0 0
BITMAP
40
C0
40
4C
48
50
60
50
48
44
EE
ENDCHAR
STARTCHAR l
ENCODING 108
SWIDTH 333 0
DWIDTH 4 0
BBX 3 10 0 0
BITMAP
40
C0
40
40
40
40
40
40
40
E0
ENDCHAR
STARTCHAR m
ENCODING 109
SWIDTH 666 0
DWIDTH 14 0
BBX 13 8 0 0
BITMAP
58C0
E520
4210
4210
4210
4210
4210
E738
ENDCHAR
STARTCHAR n
ENCODING 110
SWIDTH 500 0
DWIDTH 10 0
BBX 9 8 0 0
BITMAP
5C00
E200
4100
4100
4100
4100
4100
E380
ENDCHAR
STARTCHAR o
ENCODING 111
SWIDTH 416 0
DWIDTH 8 0
BBX 7 8 0 0
BITMAP
38
44
82
82
82
82
44
38
ENDCHAR
STARTCHAR p
ENCODING 112
SWIDTH 500 0
DWIDTH 9 0
BBX 8 11 0 -3
BITMAP
DC
62
41
41
41
41
62
5C
40
40
E0
ENDCHAR
STARTCHAR q
ENCODING 113
SWIDTH 500 0
DWIDTH 9 0
BBX 8 11 0 -3
BITMAP
3A
46
82
82
82
82
46
3A
02
02
07
ENDCHAR
STARTCHAR r
ENCODING 114
SWIDTH 416 0
DWIDTH 8 0
BBX 7 8 0 0
BITMAP
5C
E2
40
40
40
40
40
E0
ENDCHAR
STARTCHAR s
ENCODING 115
SWIDTH 416 0
DWIDTH 7 0
BBX 6 8 0 0
BITMAP
78
84
80
60
18
04
84
78
ENDCHAR
STARTCHAR t
ENCODING 116
SWIDTH 333 0
DWIDTH 6 0
BBX 5 10 0 0
BITMAP
40
40
E0
40
40
40
40
40
48
30
ENDCHAR
STARTCHAR u
ENCODING 117
SWIDTH 500 0
DWIDTH 10 0
BBX 9 8 0 0
BITMAP
C300
4100
4100
4100
4100
4100
2300
1D80
ENDCHAR
STARTCHAR v
ENCODING 118
SWIDTH 416 0
DWIDTH 10 0
BBX 9 8 0 0
BITMAP
E380
4100
2200
2200
1400
1400
0800
0800
ENDCHAR
STARTCHAR w
ENCODING 119
SWIDTH 583 0
DWIDTH 12 0
BBX 11 8 0 0
BITMAP
E0E0
4440
4440
2A80
2A80
1100
1100
1100
ENDCHAR
STARTCHAR x
ENCODING 120
SWIDTH 500 0
DWIDTH 8 0
BBX 7 8 0 0
BITMAP
EE
44
28
10
10
28
44
EE
ENDCHAR
STARTCHAR y
ENCODING 121
SWIDTH 500 0
DWIDTH 10 0
BBX 9 11 0 -3
BITMAP
E380
4100
2200
2200
1400
1400
0800
0800
1000
3000
2000
ENDCHAR
STARTCHAR z
ENCODING 122
SWIDTH 416 0
DWIDTH 7 0
BBX 6 8 0 0
BITMAP
FC
84
08
10
20
40
84
FC
ENDCHAR
STARTCHAR braceleft
ENCODING 123
SWIDTH 333 0
DWIDTH 5 0
BBX 3 13 1 -2
BITMAP
20
40
40
40
40
40
80
40
40
40
40
40
20
ENDCHAR
STARTCHAR bar
ENCODING 124
SWIDTH 166 0
DWIDTH 3 0
BBX 1 13 1 -2
BITMAP
80
80
80
80
80
80
80
80
80
80
80
80
80
ENDCHAR
STARTCHAR braceright
ENCODING 125
SWIDTH 333 0
DWIDTH 5 0
BBX 3 13 1 -2
BITMAP
80
40
40
40
40
40
20
40
40
40
40
40
80
ENDCHAR
STARTCHAR asciitilde
ENCODING 126
SWIDTH 333 0
DWIDTH 8 0
BBX 6 2 1 8
BITMAP
64
98
ENDCHAR
STARTCHAR uni007F
ENCODING 127
SWIDTH 0 0
DWIDTH 0 0
BBX 1 1 0 -3
BITMAP
00
ENDCHAR
STARTCHAR Adieresis
ENCODING 128
SWIDTH 666 0
DWIDTH 12 0
BBX 11 13 0 0
BITMAP
1100
0000
0400
0400
0A00
0A00
1100
1100
2080
3F80
4040
4040
F0E0
ENDCHAR
STARTCHAR Aring
ENCODING 129
SWIDTH 666 0
DWIDTH 12 0
BBX 11 13 0 0
BITMAP
0E00
1100
1100
0E00
0A00
0A00
1100
1100
2080
3F80
4040
4040
E0E0
ENDCHAR
STARTCHAR Ccedilla
ENCODING 130
SWIDTH 500 0
DWIDTH 9 0
BBX 8 14 0 -3
BITMAP
3E
43
81
80
80
80
80
80
81
42
3C
08
04
04
ENDCHAR
STARTCHAR Eacute
ENCODING 131
SWIDTH 500 0
DWIDTH 8 0
BBX 7 14 0 0
BITMAP
08
10
00
FE
42
40
40
48
78
48
40
40
42
FE
ENDCHAR
STARTCHAR Ntilde
ENCODING 132
SWIDTH 583 0
DWIDTH 10 0
BBX 9 14 0 0
BITMAP
1900
2600
0000
E380
6100
5100
5100
4900
4900
4500
4500
4300
4300
E100
ENDCHAR
STARTCHAR Odieresis
ENCODING 133
SWIDTH 583 0
DWIDTH 9 0
BBX 8 13 0 0
BITMAP
24
00
3C
42
81
81
81
81
81
81
81
42
3C
ENDCHAR
STARTCHAR Udieresis
ENCODING 134
SWIDTH 583 0
DWIDTH 11 0
BBX 10 13 0 0
BITMAP
1200
0000
E1C0
4080
4080
4080
4080
4080
4080
4080
4080
2100
1E00
ENDCHAR
STARTCHAR aacute
ENCODING 135
SWIDTH 416 0
DWIDTH 8 0
BBX 7 11 0 0
BITMAP
08
10
00
38
44
8C
34
44
84
8C
72
ENDCHAR
STARTCHAR agrave
ENCODING 136
SWIDTH 416 0
DWIDTH 8 0
BBX 7 11 0 0
BITMAP
20
10
00
38
44
8C
34
44
84
8C
72
ENDCHAR
STARTCHAR acircumflex
ENCODING 137
SWIDTH 416 0
DWIDTH 8 0
BBX 7 12 0 0
BITMAP
10
28
44
00
38
44
8C
34
44
84
8C
72
ENDCHAR
STARTCHAR adieresis
ENCODING 138
SWIDTH 416 0
DWIDTH 8 0
BBX 7 10 0 0
BITMAP
28
00
38
44
8C
34
44
84
8C
72
ENDCHAR
STARTCHAR atilde
ENCODING 139
SWIDTH 416 0
DWIDTH 8 0
BBX 7 11 0 0
BITMAP
64
98
00
38
44
8C
34
44
84
8C
72
ENDCHAR
STARTCHAR aring
ENCODING 140
SWIDTH 416 0
DWIDTH 8 0
BBX 7 13 0 0
BITMAP
30
48
48
30
00
38
44
8C
34
44
84
8C
72
ENDCHAR
STARTCHAR ccedilla
ENCODING 141
SWIDTH 416 0
DWIDTH 7 0
BBX 6 11 0 -3
BITMAP
38
44
80
80
80
80
44
38
10
10
20
ENDCHAR
STARTCHAR eacute
ENCODING 142
SWIDTH 416 0
DWIDTH 8 0
BBX 7 11 0 0
BITMAP
04
08
00
38
44
82
FE
80
82
44
38
ENDCHAR
STARTCHAR egrave
ENCODING 143
SWIDTH 416 0
DWIDTH 8 0
BBX 7 11 0 0
BITMAP
10
08
00
38
44
82
FE
80
82
44
38
ENDCHAR
STARTCHAR ecircumflex
ENCODING 144
SWIDTH 416 0
DWIDTH 8 0
BBX 7 12 0 0
BITMAP
10
28
44
00
38
44
82
FE
80
82
44
38
ENDCHAR
STARTCHAR edieresis
ENCODING 145
SWIDTH 416 0
DWIDTH 8 0
BBX 7 10 0 0
BITMAP
44
00
38
44
82
FE
80
82
44
38
ENDCHAR
STARTCHAR iacute
ENCODING 146
SWIDTH 333 0
DWIDTH 6 0
BBX 3 11 1 0
BITMAP
20
40
00
40
C0
40
40
40
40
40
E0
ENDCHAR
STARTCHAR igrave
ENCODING 147
SWIDTH 333 0
DWIDTH 6 0
BBX 3 11 1 0
BITMAP
80
40
00
40
C0
40
40
40
40
40
E0
ENDCHAR
STARTCHAR icircumflex
ENCODING 148
SWIDTH 333 0
DWIDTH 6 0
BBX 5 12 0 0
BITMAP
20
50
88
00
20
60
20
20
20
20
20
70
ENDCHAR
STARTCHAR idieresis
ENCODING 149
SWIDTH 333 0
DWIDTH 6 0
BBX 3 10 1 0
BITMAP
A0
00
40
C0
40
40
40
40
40
E0
ENDCHAR
STARTCHAR ntilde
ENCODING 150
SWIDTH 500 0
DWIDTH 10 0
BBX 9 11 0 0
BITMAP
3200
4C00
0000
5C00
E200
4100
4100
4100
4100
4100
E380
ENDCHAR
STARTCHAR oacute
ENCODING 151
SWIDTH 416 0
DWIDTH 8 0
BBX 7 11 0 0
BITMAP
08
10
00
38
44
82
82
82
82
44
38
ENDCHAR
STARTCHAR ograve
ENCODING 152
SWIDTH 416 0
DWIDTH 8 0
BBX 7 11 0 0
BITMAP
10
08
00
38
44
82
82
82
82
44
38
ENDCHAR
STARTCHAR ocircumflex
ENCODING 153
SWIDTH 416 0
DWIDTH 8 0
BBX 7 12 0 0
BITMAP
10
28
44
00
38
44
82
82
82
82
44
38
ENDCHAR
STARTCHAR odieresis
ENCODING 154
SWIDTH 416 0
DWIDTH 8 0
BBX 7 10 0 0
BITMAP
44
00
38
44
82
82
82
82
44
38
ENDCHAR
STARTCHAR otilde
ENCODING 155
SWIDTH 416 0
DWIDTH 8 0
BBX 7 11 0 0
BITMAP
32
4C
00
38
44
82
82
82
82
44
38
ENDCHAR
STARTCHAR uacute
ENCODING 156
SWIDTH 500 0
DWIDTH 10 0
BBX 9 11 0 0
BITMAP
0400
0800
0000
C300
4100
4100
4100
4100
4100
2300
1D80
ENDCHAR
STARTCHAR ugrave
ENCODING 157
SWIDTH 500 0
DWIDTH 10 0
BBX 9 11 0 0
BITMAP
1000
0800
0000
C300
4100
4100
4100
4100
4100
2300
1D80
ENDCHAR
STARTCHAR ucircumflex
ENCODING 158
SWIDTH 500 0
DWIDTH 10 0
BBX 9 12 0 0
BITMAP
0800
1400
2200
0000
C300
4100
4100
4100
4100
4100
2300
1D80
ENDCHAR
STARTCHAR udieresis
ENCODING 159
SWIDTH 500 0
DWIDTH 10 0
BBX 9 11 0 0
BITMAP
1200
0000
0000
C300
4100
4100
4100
4100
4100
2300
1D80
ENDCHAR
STARTCHAR dagger
ENCODING 160
SWIDTH 333 0
DWIDTH 4 0
BBX 3 5 0 6
BITMAP
40
E0
40
40
40
ENDCHAR
STARTCHAR degree
ENCODING 161
SWIDTH 333 0
DWIDTH 5 0
BBX 4 4 0 7
BITMAP
60
90
90
60
ENDCHAR
STARTCHAR cent
ENCODING 162
SWIDTH 500 0
DWIDTH 7 0
BBX 6 10 0 -1
BITMAP
10
38
54
90
90
90
90
54
38
10
ENDCHAR
STARTCHAR sterling
ENCODING 163
SWIDTH 500 0
DWIDTH 9 0
BBX 7 10 1 0
BITMAP
38
44
40
40
F0
40
40
42
42
FC
ENDCHAR
STARTCHAR section
ENCODING 164
SWIDTH 416 0
DWIDTH 6 0
BBX 5 10 0 0
BITMAP
70
88
C0
A0
90
48
28
18
88
70
ENDCHAR
STARTCHAR bullet
ENCODING 165
SWIDTH 333 0
DWIDTH 8 0
BBX 6 6 1 1
BITMAP
78
FC
FC
FC
FC
78
ENDCHAR
STARTCHAR paragraph
ENCODING 166
SWIDTH 583 0
DWIDTH 9 0
BBX 8 10 0 0
BITMAP
3F
4A
8A
8A
4A
3E
0A
0A
0A
0A
ENDCHAR
STARTCHAR germandbls
ENCODING 167
SWIDTH 416 0
DWIDTH 8 0
BBX 7 10 0 0
BITMAP
1C
22
42
44
4C
42
42
42
42
CC
ENDCHAR
STARTCHAR registered
ENCODING 168
SWIDTH 500 0
DWIDTH 10 0
BBX 8 8 1 0
BITMAP
3C
42
B9
A5
B9
A5
42
3C
ENDCHAR
STARTCHAR copyright
ENCODING 169
SWIDTH 500 0
DWIDTH 10 0
BBX 8 8 1 0
BITMAP
3C
42
99
A1
A1
99
42
3C
ENDCHAR
STARTCHAR trademark
ENCODING 170
SWIDTH 500 0
DWIDTH 10 0
BBX 9 4 0 7
BITMAP
EF80
4A80
4A80
4A80
ENDCHAR
STARTCHAR acute
ENCODING 171
SWIDTH 250 0
DWIDTH 5 0
BBX 3 3 1 8
BITMAP
20
40
80
ENDCHAR
STARTCHAR dieresis
ENCODING 172
SWIDTH 333 0
DWIDTH 5 0
BBX 3 1 1 10
BITMAP
A0
ENDCHAR
STARTCHAR AE
ENCODING 174
SWIDTH 750 0
DWIDTH 14 0
BBX 12 11 1 0
BITMAP
07F0
0610
0A10
0A00
1240
13C0
3E40
2200
4200
4210
E7F0
ENDCHAR
STARTCHAR Oslash
ENCODING 175
SWIDTH 583 0
DWIDTH 10 0
BBX 8 11 1 0
BITMAP
3D
42
83
85
85
89
91
91
A1
42
BC
ENDCHAR
STARTCHAR yen
ENCODING 180
SWIDTH 500 0
DWIDTH 10 0
BBX 9 11 0 0
BITMAP
E380
4100
2200
7700
0800
7F00
0800
0800
0800
0800
1C00
ENDCHAR
STARTCHAR ordfeminine
ENCODING 187
SWIDTH 416 0
DWIDTH 7 0
BBX 6 8 0 2
BITMAP
70
88
78
88
88
74
00
FC
ENDCHAR
STARTCHAR ordmasculine
ENCODING 188
SWIDTH 416 0
DWIDTH 6 0
BBX 5 8 0 2
BITMAP
70
88
88
88
88
70
00
F8
ENDCHAR
STARTCHAR ae
ENCODING 190
SWIDTH 666 0
DWIDTH 14 0
BBX 12 8 1 0
BITMAP
39C0
4620
8410
3FF0
4400
8410
8E20
71C0
ENDCHAR
STARTCHAR oslash
ENCODING 191
SWIDTH 416 0
DWIDTH 7 0
BBX 6 8 0 0
BITMAP
34
48
8C
94
A4
A4
48
B0
ENDCHAR
STARTCHAR questiondown
ENCODING 192
SWIDTH 416 0
DWIDTH 9 0
BBX 7 11 1 0
BITMAP
10
00
10
10
10
20
40
82
82
44
38
ENDCHAR
STARTCHAR exclamdown
ENCODING 193
SWIDTH 250 0
DWIDTH 5 0
BBX 1 11 2 0
BITMAP
80
00
80
80
80
80
80
80
80
80
80
ENDCHAR
STARTCHAR guillemotleft
ENCODING 199
SWIDTH 500 0
DWIDTH 9 0
BBX 7 7 1 0
BITMAP
12
24
48
90
48
24
12
ENDCHAR
STARTCHAR guillemotright
ENCODING 200
SWIDTH 500 0
DWIDTH 9 0
BBX 7 7 1 0
BITMAP
90
48
24
12
24
48
90
ENDCHAR
STARTCHAR ellipsis
ENCODING 201
SWIDTH 666 0
DWIDTH 10 0
BBX 7 1 2 0
BITMAP
92
ENDCHAR
STARTCHAR Agrave
ENCODING 203
SWIDTH 666 0
DWIDTH 12 0
BBX 11 14 0 0
BITMAP
0800
0400
0000
0400
0400
0A00
0A00
1100
1100
2080
3F80
4040
4040
E0E0
ENDCHAR
STARTCHAR Atilde
ENCODING 204
SWIDTH 666 0
DWIDTH 12 0
BBX 11 14 0 0
BITMAP
0C80
1300
0000
0400
0400
0A00
0A00
1100
1100
2080
3F80
4040
4040
E0E0
ENDCHAR
STARTCHAR Otilde
ENCODING 205
SWIDTH 583 0
DWIDTH 12 0
BBX 10 14 0 0
BITMAP
1900
2600
0000
1E00
2100
4080
8040
8040
8040
8040
8040
4080
2100
1E00
ENDCHAR
STARTCHAR OE
ENCODING 206
SWIDTH 833 0
DWIDTH 16 0
BBX 15 11 0 0
BITMAP
1EFE
2182
4080
8080
8088
80F8
8088
8080
4080
2182
1EFE
ENDCHAR
STARTCHAR oe
ENCODING 207
SWIDTH 666 0
DWIDTH 15 0
BBX 13 8 1 0
BITMAP
38E0
4510
8208
83F8
8200
8208
4510
38E0
ENDCHAR
STARTCHAR endash
ENCODING 208
SWIDTH 333 0
DWIDTH 7 0
BBX 5 1 1 4
BITMAP
F8
ENDCHAR
STARTCHAR emdash
ENCODING 209
SWIDTH 416 0
DWIDTH 9 0
BBX 8 1 0 4
BITMAP
FF
ENDCHAR
STARTCHAR quotedblleft
ENCODING 210
SWIDTH 416 0
DWIDTH 7 0
BBX 5 3 1 7
BITMAP
48
90
90
ENDCHAR
STARTCHAR quotedblright
ENCODING 211
SWIDTH 416 0
DWIDTH 7 0
BBX 5 3 1 7
BITMAP
48
48
90
ENDCHAR
STARTCHAR quoteleft
ENCODING 212
SWIDTH 250 0
DWIDTH 4 0
BBX 2 3 1 7
BITMAP
40
80
80
ENDCHAR
STARTCHAR quoteright
ENCODING 213
SWIDTH 250 0
DWIDTH 4 0
BBX 2 3 1 7
BITMAP
40
40
80
ENDCHAR
STARTCHAR lozenge
ENCODING 215
SWIDTH 750 0
DWIDTH 9 0
BBX 7 8 1 0
BITMAP
10
28
44
82
82
44
28
10
ENDCHAR
STARTCHAR ydieresis
ENCODING 216
SWIDTH 500 0
DWIDTH 10 0
BBX 9 14 0 -3
BITMAP
2200
0000
0000
E380
4100
2200
2200
1400
1400
0800
0800
1000
3000
2000
ENDCHAR
STARTCHAR Ydieresis
ENCODING 217
SWIDTH 666 0
DWIDTH 14 0
BBX 12 13 1 -1
BITMAP
0FF0
0810
0FF0
0810
0810
0810
0810
0810
0810
78F0
F9F0
F1E0
60C0
ENDCHAR
ENDFONT
